. 
  
http://www.torrenting.com/        :     Greatest Movie Tracker on The Net!!!
 
http://www.Torrenting.com          :     Once & For all ;)


               www . Torrenting . Com 

(((((((((((((= Enjoy No RAR releases =))))))))))))))))))))


...................................NFO:....................................

.                                                                                                     
       
     
     
       
       
     
     
                                         
                                         
                EXVID                    
                                         
         
                                         
         Filled the Archives             
                                         
         
                                         
                With:                    
                                         
         
                                         
                                    
     E240                           
                                    
     SP               (C) 2009      
                                         
     
     
     
                                                                                  
                                                                                   
                 Rolling.Thunder.1977.DVDRip.XviD-EXViD                             
                                                                                   
                                                                                  
     
                                                                                               
EXViD aims to iNTERNAL those releases which have been lost in the archives.
EXViD aims to PRE non-internal releases which have poor sources and are likely skipped by others. 
http://www.imdb.com/title/tt0076637/
Subtitles: None
Date: 2011.07

Director: John Flynn

Genres: Action | Drama | Crime | Thriller

Plot:
Major Charles Rane comes back from the war and is given a number of gifts from his hometown because
he is a war hero. Some greedy thugs decide that they want to steal a number of silver dollars
from him. In the process they also manage to kill his wife and son and destroy his hand. The
Major wants revenge so he enlists the help of his war buddy Johnny to meet the thugs in a final
showdown.

Cast:
William Devane 	 ... 	Major Charles Rane 
Tommy Lee Jones 	 ... 	 Johnny Vohden 
Linda Haynes 	 ... 	 Linda Forchet 
James Best 	 ... 	 Texan 
Dabney Coleman 	 ... 	 Maxwell 
Lisa Blake Richards 	 ... 	 Janet (as Lisa Richards) 
Luke Askew 	 ... 	 Automatic Slim 
Lawrason Driscoll 	 ... 	 Cliff 
James Victor 	 ... 	 Lopez 
Cassie Yates 	 ... 	 Candy 
Jordan Gerler 	 ... 	 Mark 
Jane Abbott 	 ... 	 Sister 
Jerry Brown 	 ... 	 Patrolman 1 
Jacque Burandt 	 ... 	 Bebe 
Anthony Castillo 	 ... 	 Street Urchin

Stats:
Format                           : AVI
Format/Info                      : Audio Video Interleave
File size                        : 701 MiB
Duration                         : 1h 39mn
Overall bit rate                 : 982 Kbps
Writing application              : Nandub v1.0rc2
Writing library                  : Nandub build 1852/release

Video
ID                               : 0
Format                           : MPEG-4 Visual
Format profile                   : Advanced Simple@L5
Format settings, BVOP            : 2
Format settings, QPel            : No
Format settings, GMC             : No warppoints
Format settings, Matrix          : Default (H.263)
Codec ID                         : XVID
Codec ID/Hint                    : XviD
Duration                         : 1h 39mn
Bit rate                         : 896 Kbps
Width                            : 592 pixels
Height                           : 320 pixels
Display aspect ratio             : 1.850
Frame rate                       : 23.976 fps
Color space                      : YUV
Chroma subsampling               : 4:2:0
Bit depth                        : 8 bits
Scan type                        : Progressive
Compression mode                 : Lossy
Bits/(Pixel*Frame)               : 0.197
Stream size                      : 640 MiB (91%)
Writing library                  : XviD 1.2.1 (UTC 2008-12-04)

Audio
ID                               : 1
Format                           : MPEG Audio
Format version                   : Version 1
Format profile                   : Layer 3
Codec ID                         : 55
Codec ID/Hint                    : MP3
Duration                         : 1h 39mn
Bit rate mode                    : Variable
Bit rate                         : 72.8 Kbps
Nominal bit rate                 : 80.0 Kbps
Channel(s)                       : 1 channel
Sampling rate                    : 48.0 KHz
Compression mode                 : Lossy
Stream size                      : 51.9 MiB (7%)
Alignment                        : Aligned on interleaves
Interleave, duration             : 24 ms (0.58 video frame)
Interleave, preload duration     : 532 ms
Writing library                  : LAME3.98r
Encoding settings                : -m m -V 4 -q 3 -lowpass 20.3 --abr 80




Release notes:
enjoy!

Looking for:
75TB+ Archives
DUTCH/FLEMiSH Archives
                                                                                                    
Greets: CRBS EPiSODE FiCO FLS iLS KLASSiGER LiPSYNC MADE NODLABS RUNNER SPRiNTER      
   

                                                                    ASCII DONE BY XX^NFO 2oo9